<svg width="109" height="102" viewBox="0 0 109 102" fill="none" xmlns="http://www.w3.org/2000/svg">
<path d="M71.6187 27.2013L24.8055 53.5138L36.2076 73.7995L83.0207 47.487L71.6187 27.2013Z" fill="#37474F"/>
<path d="M64.8767 70.0056C51.9496 77.2716 39.1141 78.9701 36.2076 73.7992C33.3012 68.6284 41.4246 58.5463 54.3517 51.2803C67.2788 44.0143 80.1144 42.3159 83.0208 47.4867C85.9272 52.6576 77.8038 62.7396 64.8767 70.0056Z" fill="#37474F"/>
<path d="M39.266 21.155L83.059 16.869C84.6581 16.7915 85.6229 18.508 84.7254 19.8338L58.2987 55.0165C57.5378 55.8549 56.6016 56.3811 55.4899 56.5953L11.6969 60.8813C10.0977 60.9588 9.13292 59.2423 10.0304 57.9165L36.4572 22.7338C37.1303 21.7394 38.0666 21.2131 39.266 21.155Z" fill="#78909C"/>
<path d="M18.6031 57.8219L46.8298 34.9747C47.5223 34.3801 48.8094 34.478 49.404 35.1705C49.9986 35.863 49.9007 37.1501 49.2082 37.7447L22.0544 59.5781L35.0353 82.6726C35.5615 83.6089 35.2882 84.5839 34.3519 85.1102C33.4156 85.6364 32.4406 85.3631 31.9144 84.4268L18.2319 60.084C17.7933 59.3037 18.0667 58.3287 18.6031 57.8219Z" fill="#37474F"/>
<path d="M35.2288 86.6707C33.5052 87.6395 31.3225 87.0276 30.3537 85.304C29.3849 83.5803 29.9968 81.3977 31.7204 80.4289C33.444 79.4601 35.6267 80.072 36.5955 81.7956C37.5643 83.5192 36.9524 85.7019 35.2288 86.6707Z" fill="#37474F"/>
<path d="M31.4254 90.8622C32.9164 93.515 41.3692 97.5936 41.3692 97.5936C41.3692 97.5936 42.279 88.2525 40.788 85.5997C39.2969 82.947 36.1282 82.0586 33.4754 83.5496C30.8227 85.0407 29.9343 88.2095 31.4254 90.8622Z" fill="#37474F"/>
</svg>
