<svg width="27" height="33" viewBox="0 0 27 33" fill="none" xmlns="http://www.w3.org/2000/svg">
<mask id="path-1-inside-1_75_773" fill="white">
<path fill-rule="evenodd" clip-rule="evenodd" d="M11.3347 13.2673H15.2634L15.9981 10.7612C16.0636 10.5376 16.0815 10.2995 16.0502 10.0665C16.019 9.83351 15.9394 9.6123 15.8182 9.42107C15.697 9.22984 15.5375 9.07407 15.353 8.96657C15.1684 8.85906 14.964 8.80291 14.7566 8.80273H11.8415C11.6342 8.80315 11.43 8.85947 11.2456 8.96707C11.0612 9.07468 10.9019 9.23048 10.7808 9.42168C10.6597 9.61287 10.5803 9.834 10.5491 10.0669C10.5179 10.2997 10.5358 10.5377 10.6013 10.7612L11.3347 13.2673ZM16.5298 25.5522L15.2634 14.7555H11.3347L10.0683 25.5522C10.0549 25.6656 10.0647 25.781 10.097 25.8894C10.1292 25.9978 10.1831 26.0963 10.2543 26.1772L12.8355 29.1104C12.8963 29.1797 12.9685 29.2347 13.0481 29.2722C13.1276 29.3097 13.2129 29.329 13.2991 29.329C13.3852 29.329 13.4705 29.3097 13.55 29.2722C13.6296 29.2347 13.7018 29.1797 13.7626 29.1104L16.3438 26.1758C16.415 26.0948 16.4689 25.9963 16.5011 25.8879C16.5334 25.7795 16.5432 25.6641 16.5298 25.5507V25.5522Z"/>
</mask>
<path fill-rule="evenodd" clip-rule="evenodd" d="M11.3347 13.2673H15.2634L15.9981 10.7612C16.0636 10.5376 16.0815 10.2995 16.0502 10.0665C16.019 9.83351 15.9394 9.6123 15.8182 9.42107C15.697 9.22984 15.5375 9.07407 15.353 8.96657C15.1684 8.85906 14.964 8.80291 14.7566 8.80273H11.8415C11.6342 8.80315 11.43 8.85947 11.2456 8.96707C11.0612 9.07468 10.9019 9.23048 10.7808 9.42168C10.6597 9.61287 10.5803 9.834 10.5491 10.0669C10.5179 10.2997 10.5358 10.5377 10.6013 10.7612L11.3347 13.2673ZM16.5298 25.5522L15.2634 14.7555H11.3347L10.0683 25.5522C10.0549 25.6656 10.0647 25.781 10.097 25.8894C10.1292 25.9978 10.1831 26.0963 10.2543 26.1772L12.8355 29.1104C12.8963 29.1797 12.9685 29.2347 13.0481 29.2722C13.1276 29.3097 13.2129 29.329 13.2991 29.329C13.3852 29.329 13.4705 29.3097 13.55 29.2722C13.6296 29.2347 13.7018 29.1797 13.7626 29.1104L16.3438 26.1758C16.415 26.0948 16.4689 25.9963 16.5011 25.8879C16.5334 25.7795 16.5432 25.6641 16.5298 25.5507V25.5522Z" fill="#37474F"/>
<path d="M11.3347 13.2673L9.7031 13.7447L10.0609 14.9673H11.3347V13.2673ZM15.2634 13.2673V14.9673H16.5366L16.8948 13.7455L15.2634 13.2673ZM15.9981 10.7612L17.6295 11.2394L17.6295 11.2393L15.9981 10.7612ZM14.7566 8.80273L14.7581 7.10273H14.7566V8.80273ZM11.8415 8.80273V7.10273L11.8381 7.10274L11.8415 8.80273ZM10.6013 10.7612L12.2329 10.2837L12.2327 10.283L10.6013 10.7612ZM16.5298 25.5522L14.8414 25.7502L18.2298 25.5522H16.5298ZM15.2634 14.7555L16.9519 14.5574L16.7757 13.0555H15.2634V14.7555ZM11.3347 14.7555V13.0555H9.82242L9.64625 14.5574L11.3347 14.7555ZM10.0683 25.5522L11.7566 25.7514L11.7567 25.7502L10.0683 25.5522ZM10.2543 26.1772L8.97802 27.3003L8.97805 27.3003L10.2543 26.1772ZM12.8355 29.1104L14.1131 27.989L14.1117 27.9874L12.8355 29.1104ZM13.7626 29.1104L12.4861 27.9877L12.485 27.989L13.7626 29.1104ZM16.3438 26.1758L15.0676 25.0527L15.0673 25.053L16.3438 26.1758ZM16.5298 25.5507L18.2181 25.3515L14.8298 25.5507H16.5298ZM11.3347 14.9673H15.2634V11.5673H11.3347V14.9673ZM16.8948 13.7455L17.6295 11.2394L14.3668 10.2829L13.6321 12.789L16.8948 13.7455ZM17.6295 11.2393C17.7626 10.7852 17.7978 10.3071 17.7351 9.84033L14.3653 10.2927C14.3652 10.2914 14.3652 10.2908 14.3652 10.2901C14.3653 10.2895 14.3655 10.2873 14.3667 10.283L17.6295 11.2393ZM17.7351 9.84033C17.6725 9.37357 17.5118 8.91745 17.254 8.51089L14.3824 10.3313C14.3744 10.3187 14.3703 10.309 14.3682 10.3032C14.3661 10.2974 14.3655 10.2939 14.3653 10.2927L17.7351 9.84033ZM17.254 8.51089C16.996 8.10381 16.6427 7.75041 16.2086 7.49759L14.4973 10.4355C14.4324 10.3977 14.398 10.3559 14.3824 10.3313L17.254 8.51089ZM16.2086 7.49759C15.7728 7.24375 15.2748 7.10318 14.7581 7.10273L14.7552 10.5027C14.6532 10.5026 14.564 10.4744 14.4973 10.4355L16.2086 7.49759ZM14.7566 7.10273H11.8415V10.5027H14.7566V7.10273ZM11.8381 7.10274C11.3216 7.10377 10.8241 7.24475 10.3888 7.49878L12.1024 10.4354C12.0358 10.4742 11.9468 10.5025 11.8449 10.5027L11.8381 7.10274ZM10.3888 7.49878C9.95517 7.7518 9.60228 8.10521 9.34457 8.51218L12.2171 10.3312C12.2015 10.3557 12.1672 10.3976 12.1024 10.4354L10.3888 7.49878ZM9.34457 8.51218C9.08718 8.91863 8.92671 9.37455 8.86419 9.84107L12.2341 10.2927C12.2339 10.2939 12.2333 10.2974 12.2312 10.3032C12.2292 10.309 12.225 10.3186 12.2171 10.3312L9.34457 8.51218ZM8.86419 9.84107C8.80168 10.3076 8.83691 10.7855 8.96994 11.2393L12.2327 10.283C12.2339 10.2873 12.2341 10.2895 12.2342 10.2901C12.2342 10.2908 12.2342 10.2914 12.2341 10.2927L8.86419 9.84107ZM8.96974 11.2386L9.7031 13.7447L12.9663 12.7898L12.2329 10.2837L8.96974 11.2386ZM18.2182 25.3542L16.9519 14.5574L13.575 14.9535L14.8414 25.7502L18.2182 25.3542ZM15.2634 13.0555H11.3347V16.4555H15.2634V13.0555ZM9.64625 14.5574L8.37988 25.3542L11.7567 25.7502L13.0231 14.9535L9.64625 14.5574ZM8.38002 25.353C8.33981 25.6937 8.36873 26.042 8.46758 26.3742L11.7264 25.4046C11.7608 25.5201 11.77 25.6375 11.7566 25.7514L8.38002 25.353ZM8.46758 26.3742C8.56645 26.7065 8.73629 27.0256 8.97802 27.3003L11.5305 25.0542C11.6298 25.1671 11.692 25.2892 11.7264 25.4046L8.46758 26.3742ZM8.97805 27.3003L11.5592 30.2335L14.1117 27.9874L11.5305 25.0542L8.97805 27.3003ZM11.5578 30.2319C11.7648 30.4677 12.0226 30.6682 12.323 30.8099L13.7732 27.7346C13.9145 27.8013 14.0278 27.8918 14.1131 27.989L11.5578 30.2319ZM12.323 30.8099C12.6244 30.952 12.9568 31.029 13.2991 31.029V27.629C13.469 27.629 13.6309 27.6675 13.7732 27.7346L12.323 30.8099ZM13.2991 31.029C13.6413 31.029 13.9737 30.952 14.2751 30.8099L12.825 27.7346C12.9672 27.6675 13.1291 27.629 13.2991 27.629V31.029ZM14.2751 30.8099C14.5755 30.6682 14.8333 30.4677 15.0403 30.2319L12.485 27.989C12.5703 27.8918 12.6836 27.8013 12.825 27.7346L14.2751 30.8099ZM15.0391 30.2332L17.6203 27.2985L15.0673 25.053L12.4861 27.9877L15.0391 30.2332ZM17.6201 27.2988C17.8618 27.0241 18.0317 26.705 18.1305 26.3727L14.8717 25.4032C14.9061 25.2877 14.9683 25.1656 15.0676 25.0527L17.6201 27.2988ZM18.1305 26.3727C18.2294 26.0405 18.2583 25.6922 18.2181 25.3515L14.8415 25.75C14.8281 25.636 14.8374 25.5186 14.8717 25.4032L18.1305 26.3727ZM14.8298 25.5507V25.5522H18.2298V25.5507H14.8298Z" fill="#37474F" mask="url(#path-1-inside-1_75_773)"/>
<path d="M17.1828 9.4441L25.5978 4.95397M25.5978 4.95397L13.2989 1.10529L1 4.95397M25.5978 4.95397V26.1217L13.2989 31.8948L1 26.1217V4.95397M1 4.95397L9.41504 9.4441" stroke="#37474F" stroke-width="1.7"/>
</svg>
